<?xml version="1.0" encoding="UTF-8" standalone="no"?>
<!-- Created with Inkscape (http://www.inkscape.org/) -->

<svg
   xmlns:dc="http://purl.org/dc/elements/1.1/"
   xmlns:cc="http://creativecommons.org/ns#"
   xmlns:rdf="http://www.w3.org/1999/02/22-rdf-syntax-ns#"
   xmlns:xlink="http://www.w3.org/1999/xlink"
   xmlns:sodipodi="http://sodipodi.sourceforge.net/DTD/sodipodi-0.dtd"
   xmlns:inkscape="http://www.inkscape.org/namespaces/inkscape"
   xmlns="http://www.w3.org/2000/svg"
   id="svg2"
   version="1.1"
   inkscape:version="0.91 r13725"
   xml:space="preserve"
   width="641.96613"
   height="641.96613"
   viewBox="0 0 641.96613 641.96612"
   sodipodi:docname="icon.svg"><metadata
     id="metadata8"><rdf:RDF><cc:Work
         rdf:about=""><dc:format>image/svg+xml</dc:format><dc:type
           rdf:resource="http://purl.org/dc/dcmitype/StillImage" /><dc:title /></cc:Work></rdf:RDF></metadata><defs
     id="defs6"><clipPath
       clipPathUnits="userSpaceOnUse"
       id="clipPath16"><path
         d="M 0,494 658,494 658,0 0,0 0,494 Z"
         id="path18"
         inkscape:connector-curvature="0" /></clipPath><clipPath
       clipPathUnits="userSpaceOnUse"
       id="clipPath24"><path
         d="M 0,494 658,494 658,0 0,0 0,494 Z"
         id="path26"
         inkscape:connector-curvature="0" /></clipPath><clipPath
       clipPathUnits="userSpaceOnUse"
       id="clipPath28"><path
         d="M 658,494 0,494 0,0 l 658,0 0,494 z"
         id="path30"
         inkscape:connector-curvature="0" /></clipPath><radialGradient
       fx="0"
       fy="0"
       cx="0"
       cy="0"
       r="1"
       gradientUnits="userSpaceOnUse"
       gradientTransform="matrix(0,-300.13669,300.13669,0,329,247.90918)"
       spreadMethod="pad"
       id="radialGradient32"><stop
         style="stop-opacity:1;stop-color:#ffffff"
         offset="0"
         id="stop34" /><stop
         style="stop-opacity:1;stop-color:#e9e9ea"
         offset="0.527473"
         id="stop36" /><stop
         style="stop-opacity:1;stop-color:#71cde5"
         offset="1"
         id="stop38" /></radialGradient><clipPath
       clipPathUnits="userSpaceOnUse"
       id="clipPath58"><path
         d="M 0,494 658,494 658,0 0,0 0,494 Z"
         id="path60"
         inkscape:connector-curvature="0" /></clipPath><clipPath
       clipPathUnits="userSpaceOnUse"
       id="clipPath74"><path
         d="m 117.348,248.958 c -3.898,-1.5 17.763,-60.278 54.108,-73.654 l 0,0 c 54.194,-19.946 73.394,30.154 70.993,43.955 l 0,0 c -11.82,19.438 -73.097,30.367 -110.714,30.367 l 0,0 c -5.344,0.001 -10.207,-0.22 -14.387,-0.668"
         id="path76"
         inkscape:connector-curvature="0" /></clipPath><clipPath
       clipPathUnits="userSpaceOnUse"
       id="clipPath84"><path
         d="m 113.18729,155.60449 131.39799,0 0,97.20072 -131.39799,0 0,-97.20072 z"
         id="path86"
         inkscape:connector-curvature="0" /></clipPath><radialGradient
       fx="0"
       fy="0"
       cx="0"
       cy="0"
       r="0.49000499"
       gradientUnits="userSpaceOnUse"
       gradientTransform="matrix(131.40009,0,0,131.40009,175.80758,196.01541)"
       spreadMethod="pad"
       id="radialGradient88"><stop
         style="stop-opacity:1;stop-color:#f6931d"
         offset="0"
         id="stop90" /><stop
         style="stop-opacity:1;stop-color:#f37620"
         offset="0.59"
         id="stop92" /><stop
         style="stop-opacity:1;stop-color:#f05923"
         offset="1"
         id="stop94" /></radialGradient><clipPath
       clipPathUnits="userSpaceOnUse"
       id="clipPath102"><path
         d="M 0,494 658,494 658,0 0,0 0,494 Z"
         id="path104"
         inkscape:connector-curvature="0" /></clipPath><clipPath
       clipPathUnits="userSpaceOnUse"
       id="clipPath118"><path
         d="m 249.499,209.809 c -1.923,-6.3 -8.099,-24.3 -29.474,-37.576 l 0,0 c -4.911,-3.048 0,-1.561 0,-1.561 l 0,0 c 23.024,7.186 34.424,27.136 37.125,36.887 l 0,0 c 1.397,5.049 -0.17,7.164 -2.28,7.164 l 0,0 c -1.981,0 -4.44,-1.864 -5.371,-4.914"
         id="path120"
         inkscape:connector-curvature="0" /></clipPath><clipPath
       clipPathUnits="userSpaceOnUse"
       id="clipPath128"><path
         d="m 214.8833,169.23925 44.7415,0 0,48.14486 -44.7415,0 0,-48.14486 z"
         id="path130"
         inkscape:connector-curvature="0" /></clipPath><linearGradient
       x1="0"
       y1="0"
       x2="1"
       y2="0"
       gradientUnits="userSpaceOnUse"
       gradientTransform="matrix(45.160469,0,0,48.599999,214.46433,168.47988)"
       spreadMethod="pad"
       id="linearGradient132"><stop
         style="stop-opacity:1;stop-color:#000000"
         offset="0"
         id="stop134" /><stop
         style="stop-opacity:1;stop-color:#ffffff"
         offset="1"
         id="stop136" /></linearGradient><clipPath
       clipPathUnits="userSpaceOnUse"
       id="clipPath144"><path
         d="M 0,494 658,494 658,0 0,0 0,494 Z"
         id="path146"
         inkscape:connector-curvature="0" /></clipPath><clipPath
       clipPathUnits="userSpaceOnUse"
       id="clipPath160"><path
         d="m 88.625,247.458 c 13.452,-44.847 49.277,-66.574 65.475,-73.051 l 0,0 c 3,-1.199 2.232,1.542 0.75,2.326 l 0,0 c -15.419,8.158 -40.366,24.961 -55.479,70.725 l 0,0 c -0.65,1.969 -3.533,2.909 -6.161,2.909 l 0,0 c -2.714,0 -5.158,-1.003 -4.585,-2.909"
         id="path162"
         inkscape:connector-curvature="0" /></clipPath><clipPath
       clipPathUnits="userSpaceOnUse"
       id="clipPath170"><path
         d="m 87.237304,172.85616 69.585506,0 0,78.2542 -69.585506,0 0,-78.2542 z"
         id="path172"
         inkscape:connector-curvature="0" /></clipPath><linearGradient
       x1="0"
       y1="0"
       x2="1"
       y2="0"
       gradientUnits="userSpaceOnUse"
       gradientTransform="matrix(72.203484,0,0,79.20018,83.92328,171.69238)"
       spreadMethod="pad"
       id="linearGradient174"><stop
         style="stop-opacity:1;stop-color:#ffffff"
         offset="0"
         id="stop176" /><stop
         style="stop-opacity:1;stop-color:#000000"
         offset="1"
         id="stop178" /></linearGradient><clipPath
       clipPathUnits="userSpaceOnUse"
       id="clipPath186"><path
         d="m 526.045,249.626 c -37.618,0 -98.892,-10.929 -110.713,-30.367 l 0,0 c -2.402,-13.801 16.798,-63.901 70.992,-43.955 l 0,0 c 36.346,13.376 58.006,72.154 54.108,73.654 l 0,0 c -4.171,0.447 -9.024,0.668 -14.354,0.668 l 0,0 c -0.011,0 -0.021,0 -0.033,0"
         id="path188"
         inkscape:connector-curvature="0" /></clipPath><clipPath
       clipPathUnits="userSpaceOnUse"
       id="clipPath196"><path
         d="m 412.65853,155.60449 131.37591,0 0,97.20072 -131.37591,0 0,-97.20072 z"
         id="path198"
         inkscape:connector-curvature="0" /></clipPath><radialGradient
       fx="0"
       fy="0"
       cx="0"
       cy="0"
       r="0.47000101"
       gradientUnits="userSpaceOnUse"
       gradientTransform="matrix(131.40009,0,0,131.40009,480.73245,196.01541)"
       spreadMethod="pad"
       id="radialGradient200"><stop
         style="stop-opacity:1;stop-color:#f6931d"
         offset="0"
         id="stop202" /><stop
         style="stop-opacity:1;stop-color:#f37620"
         offset="0.59"
         id="stop204" /><stop
         style="stop-opacity:1;stop-color:#f05923"
         offset="1"
         id="stop206" /></radialGradient><clipPath
       clipPathUnits="userSpaceOnUse"
       id="clipPath214"><path
         d="M 0,494 658,494 658,0 0,0 0,494 Z"
         id="path216"
         inkscape:connector-curvature="0" /></clipPath><clipPath
       clipPathUnits="userSpaceOnUse"
       id="clipPath230"><path
         d="m 399.73,207.559 c 2.7,-9.751 14.1,-29.701 37.125,-36.887 l 0,0 c 0,0 4.911,-1.487 0,1.561 l 0,0 c -21.375,13.276 -27.551,31.276 -29.475,37.576 l 0,0 c -0.931,3.05 -3.39,4.914 -5.37,4.914 l 0,0 c -2.109,0 -3.677,-2.115 -2.28,-7.164"
         id="path232"
         inkscape:connector-curvature="0" /></clipPath><clipPath
       clipPathUnits="userSpaceOnUse"
       id="clipPath240"><path
         d="m 396.86426,169.23828 44.73513,0 0,48.14486 -44.73513,0 0,-48.14486 z"
         id="path242"
         inkscape:connector-curvature="0" /></clipPath><linearGradient
       x1="0"
       y1="0"
       x2="1"
       y2="0"
       gradientUnits="userSpaceOnUse"
       gradientTransform="matrix(45.265587,0,0,48.599999,396.3338,168.47891)"
       spreadMethod="pad"
       id="linearGradient244"><stop
         style="stop-opacity:1;stop-color:#ffffff"
         offset="0"
         id="stop246" /><stop
         style="stop-opacity:1;stop-color:#000000"
         offset="1"
         id="stop248" /></linearGradient><clipPath
       clipPathUnits="userSpaceOnUse"
       id="clipPath256"><path
         d="M 0,494 658,494 658,0 0,0 0,494 Z"
         id="path258"
         inkscape:connector-curvature="0" /></clipPath><clipPath
       clipPathUnits="userSpaceOnUse"
       id="clipPath272"><path
         d="m 557.525,247.458 c -15.113,-45.764 -40.06,-62.567 -55.479,-70.725 l 0,0 c -1.481,-0.784 -2.25,-3.525 0.751,-2.326 l 0,0 c 21.648,8.658 51.367,26.024 65.475,73.051 l 0,0 c 0.571,1.906 -1.871,2.909 -4.587,2.909 l 0,0 c -2.627,0 -5.51,-0.94 -6.16,-2.909"
         id="path274"
         inkscape:connector-curvature="0" /></clipPath><clipPath
       clipPathUnits="userSpaceOnUse"
       id="clipPath282"><path
         d="m 499.58095,172.85519 69.6006,0 0,78.2542 -69.6006,0 0,-78.2542 z"
         id="path284"
         inkscape:connector-curvature="0" /></clipPath><linearGradient
       x1="0"
       y1="0"
       x2="1"
       y2="0"
       gradientUnits="userSpaceOnUse"
       gradientTransform="matrix(70.296745,0,0,79.20018,498.8848,171.69141)"
       spreadMethod="pad"
       id="linearGradient286"><stop
         style="stop-opacity:1;stop-color:#000000"
         offset="0"
         id="stop288" /><stop
         style="stop-opacity:1;stop-color:#ffffff"
         offset="1"
         id="stop290" /></linearGradient><clipPath
       clipPathUnits="userSpaceOnUse"
       id="clipPath298"><path
         d="M 0,494 658,494 658,0 0,0 0,494 Z"
         id="path300"
         inkscape:connector-curvature="0" /></clipPath><radialGradient
       inkscape:collect="always"
       xlink:href="#radialGradient200"
       id="radialGradient4709"
       gradientUnits="userSpaceOnUse"
       gradientTransform="matrix(131.40009,0,0,131.40009,480.73245,196.01541)"
       spreadMethod="pad"
       cx="0"
       cy="0"
       fx="0"
       fy="0"
       r="0.47000101" /><linearGradient
       inkscape:collect="always"
       xlink:href="#linearGradient244"
       id="linearGradient4711"
       gradientUnits="userSpaceOnUse"
       gradientTransform="matrix(45.265587,0,0,48.599999,396.3338,168.47891)"
       spreadMethod="pad"
       x1="0"
       y1="0"
       x2="1"
       y2="0" /><linearGradient
       inkscape:collect="always"
       xlink:href="#linearGradient286"
       id="linearGradient4713"
       gradientUnits="userSpaceOnUse"
       gradientTransform="matrix(70.296745,0,0,79.20018,498.8848,171.69141)"
       spreadMethod="pad"
       x1="0"
       y1="0"
       x2="1"
       y2="0" /><radialGradient
       inkscape:collect="always"
       xlink:href="#radialGradient200"
       id="radialGradient4721"
       gradientUnits="userSpaceOnUse"
       gradientTransform="matrix(131.40009,0,0,131.40009,480.73245,196.01541)"
       spreadMethod="pad"
       cx="0"
       cy="0"
       fx="0"
       fy="0"
       r="0.47000101" /><linearGradient
       inkscape:collect="always"
       xlink:href="#linearGradient244"
       id="linearGradient4723"
       gradientUnits="userSpaceOnUse"
       gradientTransform="matrix(45.265587,0,0,48.599999,396.3338,168.47891)"
       spreadMethod="pad"
       x1="0"
       y1="0"
       x2="1"
       y2="0" /><linearGradient
       inkscape:collect="always"
       xlink:href="#linearGradient286"
       id="linearGradient4725"
       gradientUnits="userSpaceOnUse"
       gradientTransform="matrix(70.296745,0,0,79.20018,498.8848,171.69141)"
       spreadMethod="pad"
       x1="0"
       y1="0"
       x2="1"
       y2="0" /></defs><sodipodi:namedview
     pagecolor="#ffffff"
     bordercolor="#666666"
     borderopacity="1"
     objecttolerance="10"
     gridtolerance="10"
     guidetolerance="10"
     inkscape:pageopacity="0"
     inkscape:pageshadow="2"
     inkscape:window-width="1920"
     inkscape:window-height="1021"
     id="namedview4"
     showgrid="false"
     fit-margin-top="0"
     fit-margin-left="0"
     fit-margin-right="0"
     fit-margin-bottom="0"
     inkscape:zoom="0.76437246"
     inkscape:cx="142.08646"
     inkscape:cy="418.65311"
     inkscape:window-x="0"
     inkscape:window-y="27"
     inkscape:window-maximized="1"
     inkscape:current-layer="g4739" /><g
     id="g10"
     inkscape:groupmode="layer"
     inkscape:label="VectorPortal-Scary-Eyes"
     transform="matrix(1.25,0,0,-1.25,-32.24788,1375.5739)"><g
       id="g252"><g
         id="g254"
         clip-path="url(#clipPath256)"><g
           id="g260"
           transform="translate(373.373,229.1582)"><path
             d="m 0,0 c 0,0 15.047,41.851 30.647,53.42 0.435,-7.827 -4.131,-22.518 -4.131,-22.518 0,0 31.867,34.176 59.789,45.864 -8.566,-9.245 -9.852,-17.953 -9.852,-17.953 0,0 45.478,30.854 69.779,34.681 -18.486,-9.896 -26.148,-22.948 -26.148,-22.948 0,0 61.956,23.124 82.855,21.558 C 174.627,79.5 169.281,67.667 169.281,67.667 c 0,0 45.545,18.133 84.873,15.497 -16.055,-0.252 -90.209,-22.107 -98.324,-36.142 -0.478,12.68 7.894,27.97 7.894,27.97 -25.243,-8.498 -46.41,-21.691 -66.609,-36.004 l 10.287,25.309 C 88.717,53.873 71.412,40.523 55.367,24.515 l 9.154,20.879 C 44.701,34.428 30.288,19.586 18.44,2.905 L 18.027,19.499 0,0 Z"
             style="fill:#ffffff;fill-opacity:1;fill-rule:nonzero;stroke:none"
             id="path262"
             inkscape:connector-curvature="0" /></g><g
           id="g264"
           transform="translate(373.373,231.8584)"><path
             d="m 0,0 c 0,0 15.047,41.851 30.647,53.42 0.435,-7.828 -4.131,-22.518 -4.131,-22.518 0,0 31.867,34.175 59.789,45.864 -8.566,-9.246 -9.852,-17.953 -9.852,-17.953 0,0 45.478,30.854 69.779,34.681 -18.486,-9.896 -26.148,-22.948 -26.148,-22.948 0,0 61.956,23.124 82.855,21.557 -28.312,-12.604 -33.658,-24.436 -33.658,-24.436 0,0 45.545,18.133 84.873,15.497 -16.055,-0.252 -90.209,-22.107 -98.324,-36.142 -0.478,12.68 7.894,27.969 7.894,27.969 C 138.481,66.494 117.314,53.3 97.115,38.988 l 10.287,25.309 C 88.717,53.873 71.412,40.523 55.367,24.515 l 9.154,20.879 C 44.701,34.428 30.288,19.585 18.44,2.904 L 18.027,19.499 0,0 Z"
             style="fill:#666666;fill-opacity:1;fill-rule:nonzero;stroke:none"
             id="path266"
             inkscape:connector-curvature="0" /></g></g></g><g
       id="g4739"
       transform="translate(0,45.435391)"><g
         style="fill:none;fill-rule:evenodd;stroke:none;stroke-width:1"
         transform="matrix(36.683777,0,0,-36.683777,-10.885473,1063.7753)"
         id="Icons with numbers"><g
           style="fill:#000000"
           id="Group"
           transform="translate(-336,0)"><path
             inkscape:connector-curvature="0"
             d="m 345.73196,8.4845362 4.94979,4.2426818 C 350.50168,12.895464 350.2595,13 349.99315,13 l -11.98631,0 c -0.26765,0 -0.5106,-0.102945 -0.69077,-0.270915 L 342.26804,8.4845362 344,10 Z M 344,9 337.31824,3.2727818 C 337.49832,3.1045365 337.7405,3 338.00684,3 l 11.98631,0 c 0.26766,0 0.51061,0.1029448 0.69078,0.2709155 z m 7,3.185608 L 346.16736,8.0788577 351,3.875422 l 0,8.310186 0,0 z m -14,0 0,-8.3074561 4.83264,4.2007055 L 337,12.185608 l 0,0 z m 0,0"
             id="Shape" /></g></g><g
         transform="matrix(1.1766512,0,0,1.1766512,-100.39343,-316.4363)"
         id="g4621"><g
           id="g62"
           transform="matrix(0.95004934,0,0,0.95004934,439.90941,1002.8531)"><path
             d="M 0,0 C 39.799,14.381 63.518,77.569 59.247,79.183 22.455,83.053 -62.955,71.119 -77.737,47.254 -80.366,32.417 -59.342,-21.442 0,0 m -47.033,64.418 0,0 56.999,11.851 -56.999,-11.851 z"
             style="fill:#999999;fill-opacity:1;fill-rule:nonzero;stroke:none"
             id="path64"
             inkscape:connector-curvature="0" /></g><g
           id="g182"
           transform="matrix(0.95004934,0,0,0.95004934,-22.554937,837.89982)"><g
             id="g184"
             clip-path="url(#clipPath186)"><g
               id="g190"><g
                 id="g192"><g
                   id="g194"
                   clip-path="url(#clipPath196)"><path
                     d="m 526.045,249.626 c -37.618,0 -98.892,-10.929 -110.713,-30.367 l 0,0 c -2.402,-13.801 16.798,-63.901 70.992,-43.955 l 0,0 c 36.346,13.376 58.006,72.154 54.108,73.654 l 0,0 c -4.171,0.447 -9.024,0.668 -14.354,0.668 l 0,0 c -0.011,0 -0.021,0 -0.033,0"
                     style="fill:url(#radialGradient4721);stroke:none"
                     id="path208"
                     inkscape:connector-curvature="0" /></g></g></g></g></g><g
           id="g210"
           transform="matrix(0.95004934,0,0,0.95004934,-22.554937,837.89982)"><g
             id="g212"
             clip-path="url(#clipPath214)"><g
               id="g218"
               transform="translate(494.6504,247.2979)"><path
                 d="m 0,0 c -0.409,0.674 -34.775,-4.528 -50.891,-10.929 -0.734,-3.08 -1.129,-6.337 -1.129,-9.704 0,-19.269 12.894,-34.892 28.799,-34.892 15.907,0 28.801,15.623 28.801,34.892 C 5.58,-12.91 3.505,-5.778 0,0"
                 style="fill:#000000;fill-opacity:1;fill-rule:nonzero;stroke:none"
                 id="path220"
                 inkscape:connector-curvature="0" /></g><g
               id="g222"
               transform="translate(476.2412,230.958)"><path
                 d="m 0,0 c 0,-3.106 2.217,-5.625 4.95,-5.625 2.734,0 4.949,2.519 4.949,5.625 0,3.106 -2.215,5.625 -4.949,5.625 C 2.217,5.625 0,3.106 0,0"
                 style="fill:#ffffff;fill-opacity:1;fill-rule:nonzero;stroke:none"
                 id="path224"
                 inkscape:connector-curvature="0" /></g></g></g><g
           id="g226"
           transform="matrix(0.95004934,0,0,0.95004934,-22.554937,837.89982)"><g
             id="g228"
             clip-path="url(#clipPath230)"><g
               id="g234"><g
                 id="g236"><g
                   id="g238"
                   clip-path="url(#clipPath240)"><path
                     d="m 399.73,207.559 c 2.7,-9.751 14.1,-29.701 37.125,-36.887 l 0,0 c 0,0 4.911,-1.487 0,1.561 l 0,0 c -21.375,13.276 -27.551,31.276 -29.475,37.576 l 0,0 c -0.931,3.05 -3.39,4.914 -5.37,4.914 l 0,0 c -2.109,0 -3.677,-2.115 -2.28,-7.164"
                     style="fill:url(#linearGradient4723);stroke:none"
                     id="path250"
                     inkscape:connector-curvature="0" /></g></g></g></g></g><g
           id="g268"
           transform="matrix(0.95004934,0,0,0.95004934,-22.554937,837.89982)"><g
             id="g270"
             clip-path="url(#clipPath272)"><g
               id="g276"><g
                 id="g278"><g
                   id="g280"
                   clip-path="url(#clipPath282)"><path
                     d="m 557.525,247.458 c -15.113,-45.764 -40.06,-62.567 -55.479,-70.725 l 0,0 c -1.481,-0.784 -2.25,-3.525 0.751,-2.326 l 0,0 c 21.648,8.658 51.367,26.024 65.475,73.051 l 0,0 c 0.571,1.906 -1.871,2.909 -4.587,2.909 l 0,0 c -2.627,0 -5.51,-0.94 -6.16,-2.909"
                     style="fill:url(#linearGradient4725);stroke:none"
                     id="path292"
                     inkscape:connector-curvature="0" /></g></g></g></g></g><g
           id="g330"
           transform="matrix(0.95004934,0,0,0.95004934,397.31585,1016.8792)"><path
             d="M 0,0 1.536,10.88 1.983,10.83 0.808,0.234 9.202,1.736 9.29,1.367 0.581,-0.701 l -7.744,-10.582 -1.011,0.492 -0.68,0.592 L 0,0 Z m 98.809,60.044 0,0 -0.492,0.754 -0.837,0.751 -10.352,-8.047 -8.943,0.402 -0.016,-0.379 8.485,-0.861 -4.042,-9.865 0.416,-0.17 4.466,10.038 11.315,7.377 z M 82.54,10.405 l 0,0 0.747,0.503 0.737,0.849 -8.211,10.223 0.26,8.949 -0.379,0.01 -0.726,-8.498 -9.928,3.883 -0.164,-0.418 10.107,-4.305 7.557,-11.196 z m -25.881,-22.14 0,0 0.55,0.37 0.543,0.625 -6.046,7.527 0.191,6.588 -0.279,0.008 -0.534,-6.256 -7.31,2.859 -0.121,-0.308 7.444,-3.17 5.562,-8.243 z m -46.275,-6.101 0,0 0.756,-0.488 0.783,-0.159 6.867,12.018 -0.519,0.335 -3.724,-5.527 c -0.465,1.249 -1.958,5.202 -1.958,5.202 l -0.432,-0.162 c 0,0 1.263,-4.498 1.717,-6.037 l -3.49,-5.182 z m -23.819,34.627 0,0 7.012,-4.871 0.534,-0.111 -0.178,0.555 -6.572,4.947 5.951,6.226 -0.185,0.336 -6.633,-6.168 -14.356,0 0,-0.9 -0.19,-0.666 14.617,0.652 z m -5.507,18.197 0,0 -0.086,-0.009 0.355,-3.076 0.494,-0.52 0.041,3.363 4.43,-1.338 0.929,0 -0.73,0.399 -14.625,4.896 -0.285,-0.853 9.477,-2.862 z"
             style="fill:#000000;fill-opacity:1;fill-rule:nonzero;stroke:none"
             id="path332"
             inkscape:connector-curvature="0" /></g></g><g
         id="g4651"
         transform="matrix(-1.1178767,0,0,1.1178767,644.62901,-253.63558)"><g
           transform="translate(445.9615,999.40143)"
           id="g4653"><path
             inkscape:connector-curvature="0"
             id="path4655"
             style="fill:#999999;fill-opacity:1;fill-rule:nonzero;stroke:none"
             d="M 0,0 C 39.799,14.381 63.518,77.569 59.247,79.183 22.455,83.053 -62.955,71.119 -77.737,47.254 -80.366,32.417 -59.342,-21.442 0,0 m -47.033,64.418 0,0 56.999,11.851 -56.999,-11.851 z" /></g><g
           transform="translate(-40.817796,825.77543)"
           id="g4657"><g
             clip-path="url(#clipPath186)"
             id="g4659"><g
               id="g4661"><g
                 id="g4663"><g
                   clip-path="url(#clipPath196)"
                   id="g4665"><path
                     inkscape:connector-curvature="0"
                     id="path4667"
                     style="fill:url(#radialGradient4709);stroke:none"
                     d="m 526.045,249.626 c -37.618,0 -98.892,-10.929 -110.713,-30.367 l 0,0 c -2.402,-13.801 16.798,-63.901 70.992,-43.955 l 0,0 c 36.346,13.376 58.006,72.154 54.108,73.654 l 0,0 c -4.171,0.447 -9.024,0.668 -14.354,0.668 l 0,0 c -0.011,0 -0.021,0 -0.033,0" /></g></g></g></g></g><g
           transform="translate(-40.817796,825.77543)"
           id="g4669"><g
             clip-path="url(#clipPath214)"
             id="g4671"><g
               transform="translate(494.6504,247.2979)"
               id="g4673"><path
                 inkscape:connector-curvature="0"
                 id="path4675"
                 style="fill:#000000;fill-opacity:1;fill-rule:nonzero;stroke:none"
                 d="m 0,0 c -0.409,0.674 -34.775,-4.528 -50.891,-10.929 -0.734,-3.08 -1.129,-6.337 -1.129,-9.704 0,-19.269 12.894,-34.892 28.799,-34.892 15.907,0 28.801,15.623 28.801,34.892 C 5.58,-12.91 3.505,-5.778 0,0" /></g><g
               transform="translate(476.2412,230.958)"
               id="g4677"><path
                 inkscape:connector-curvature="0"
                 id="path4679"
                 style="fill:#ffffff;fill-opacity:1;fill-rule:nonzero;stroke:none"
                 d="m 0,0 c 0,-3.106 2.217,-5.625 4.95,-5.625 2.734,0 4.949,2.519 4.949,5.625 0,3.106 -2.215,5.625 -4.949,5.625 C 2.217,5.625 0,3.106 0,0" /></g></g></g><g
           transform="translate(-40.817796,825.77543)"
           id="g4681"><g
             clip-path="url(#clipPath230)"
             id="g4683"><g
               id="g4685"><g
                 id="g4687"><g
                   clip-path="url(#clipPath240)"
                   id="g4689"><path
                     inkscape:connector-curvature="0"
                     id="path4691"
                     style="fill:url(#linearGradient4711);stroke:none"
                     d="m 399.73,207.559 c 2.7,-9.751 14.1,-29.701 37.125,-36.887 l 0,0 c 0,0 4.911,-1.487 0,1.561 l 0,0 c -21.375,13.276 -27.551,31.276 -29.475,37.576 l 0,0 c -0.931,3.05 -3.39,4.914 -5.37,4.914 l 0,0 c -2.109,0 -3.677,-2.115 -2.28,-7.164" /></g></g></g></g></g><g
           transform="translate(-40.817796,825.77543)"
           id="g4693"><g
             clip-path="url(#clipPath272)"
             id="g4695"><g
               id="g4697"><g
                 id="g4699"><g
                   clip-path="url(#clipPath282)"
                   id="g4701"><path
                     inkscape:connector-curvature="0"
                     id="path4703"
                     style="fill:url(#linearGradient4713);stroke:none"
                     d="m 557.525,247.458 c -15.113,-45.764 -40.06,-62.567 -55.479,-70.725 l 0,0 c -1.481,-0.784 -2.25,-3.525 0.751,-2.326 l 0,0 c 21.648,8.658 51.367,26.024 65.475,73.051 l 0,0 c 0.571,1.906 -1.871,2.909 -4.587,2.909 l 0,0 c -2.627,0 -5.51,-0.94 -6.16,-2.909" /></g></g></g></g></g><g
           transform="translate(401.1285,1014.165)"
           id="g4705"><path
             inkscape:connector-curvature="0"
             id="path4707"
             style="fill:#000000;fill-opacity:1;fill-rule:nonzero;stroke:none"
             d="M 0,0 1.536,10.88 1.983,10.83 0.808,0.234 9.202,1.736 9.29,1.367 0.581,-0.701 l -7.744,-10.582 -1.011,0.492 -0.68,0.592 L 0,0 Z m 98.809,60.044 0,0 -0.492,0.754 -0.837,0.751 -10.352,-8.047 -8.943,0.402 -0.016,-0.379 8.485,-0.861 -4.042,-9.865 0.416,-0.17 4.466,10.038 11.315,7.377 z M 82.54,10.405 l 0,0 0.747,0.503 0.737,0.849 -8.211,10.223 0.26,8.949 -0.379,0.01 -0.726,-8.498 -9.928,3.883 -0.164,-0.418 10.107,-4.305 7.557,-11.196 z m -25.881,-22.14 0,0 0.55,0.37 0.543,0.625 -6.046,7.527 0.191,6.588 -0.279,0.008 -0.534,-6.256 -7.31,2.859 -0.121,-0.308 7.444,-3.17 5.562,-8.243 z m -46.275,-6.101 0,0 0.756,-0.488 0.783,-0.159 6.867,12.018 -0.519,0.335 -3.724,-5.527 c -0.465,1.249 -1.958,5.202 -1.958,5.202 l -0.432,-0.162 c 0,0 1.263,-4.498 1.717,-6.037 l -3.49,-5.182 z m -23.819,34.627 0,0 7.012,-4.871 0.534,-0.111 -0.178,0.555 -6.572,4.947 5.951,6.226 -0.185,0.336 -6.633,-6.168 -14.356,0 0,-0.9 -0.19,-0.666 14.617,0.652 z m -5.507,18.197 0,0 -0.086,-0.009 0.355,-3.076 0.494,-0.52 0.041,3.363 4.43,-1.338 0.929,0 -0.73,0.399 -14.625,4.896 -0.285,-0.853 9.477,-2.862 z" /></g></g><g
         transform="matrix(0.94981228,-0.02122233,0.02122233,0.94981228,-8.6466633,699.8015)"
         id="g140"><g
           clip-path="url(#clipPath144)"
           id="g142"><g
             transform="translate(253.9795,282.5781)"
             id="g148"><path
               inkscape:connector-curvature="0"
               id="path150"
               style="fill:#ffffff;fill-opacity:1;fill-rule:nonzero;stroke:none"
               d="m 0,0 c -0.436,-7.827 4.131,-22.518 4.131,-22.518 0,0 -31.867,34.176 -59.789,45.864 8.566,-9.245 9.852,-17.952 9.852,-17.952 0,0 -45.478,30.853 -69.778,34.68 18.484,-9.896 26.146,-22.948 26.146,-22.948 0,0 -61.955,23.124 -82.854,21.558 28.313,-12.604 33.658,-24.437 33.658,-24.437 0,0 -45.547,18.133 -84.873,15.497 16.057,-0.252 90.209,-22.107 98.324,-36.141 0.478,12.679 -7.893,27.969 -7.893,27.969 25.242,-8.498 46.41,-21.691 66.607,-36.004 l -10.286,25.309 c 18.687,-10.424 35.99,-23.773 52.035,-39.782 l -9.154,20.879 c 19.821,-10.966 34.232,-25.808 46.081,-42.489 l 0.413,16.594 18.027,-19.499 c 0,0 -15.045,41.851 -30.647,53.42" /></g><g
             transform="translate(253.9795,285.2783)"
             id="g152"><path
               inkscape:connector-curvature="0"
               id="path154"
               style="fill:#666666;fill-opacity:1;fill-rule:nonzero;stroke:none"
               d="m 0,0 c -0.436,-7.828 4.131,-22.518 4.131,-22.518 0,0 -31.867,34.175 -59.789,45.864 8.566,-9.246 9.852,-17.952 9.852,-17.952 0,0 -45.478,30.853 -69.778,34.68 18.484,-9.896 26.146,-22.948 26.146,-22.948 0,0 -61.955,23.124 -82.854,21.557 28.313,-12.604 33.658,-24.436 33.658,-24.436 0,0 -45.547,18.133 -84.873,15.497 16.057,-0.252 90.209,-22.107 98.324,-36.141 0.478,12.679 -7.893,27.968 -7.893,27.968 25.242,-8.497 46.41,-21.691 66.607,-36.003 l -10.286,25.309 c 18.687,-10.424 35.99,-23.773 52.035,-39.782 l -9.154,20.879 c 19.821,-10.966 34.232,-25.809 46.081,-42.49 l 0.413,16.595 18.027,-19.499 c 0,0 -15.045,41.851 -30.647,53.42" /></g></g></g><g
         id="g4727"
         transform="matrix(-0.94981228,-0.02122233,-0.02122233,0.94981228,572.1768,699.8015)"><g
           id="g4729"
           clip-path="url(#clipPath144)"><g
             id="g4731"
             transform="translate(253.9795,282.5781)"><path
               d="m 0,0 c -0.436,-7.827 4.131,-22.518 4.131,-22.518 0,0 -31.867,34.176 -59.789,45.864 8.566,-9.245 9.852,-17.952 9.852,-17.952 0,0 -45.478,30.853 -69.778,34.68 18.484,-9.896 26.146,-22.948 26.146,-22.948 0,0 -61.955,23.124 -82.854,21.558 28.313,-12.604 33.658,-24.437 33.658,-24.437 0,0 -45.547,18.133 -84.873,15.497 16.057,-0.252 90.209,-22.107 98.324,-36.141 0.478,12.679 -7.893,27.969 -7.893,27.969 25.242,-8.498 46.41,-21.691 66.607,-36.004 l -10.286,25.309 c 18.687,-10.424 35.99,-23.773 52.035,-39.782 l -9.154,20.879 c 19.821,-10.966 34.232,-25.808 46.081,-42.489 l 0.413,16.594 18.027,-19.499 c 0,0 -15.045,41.851 -30.647,53.42"
               style="fill:#ffffff;fill-opacity:1;fill-rule:nonzero;stroke:none"
               id="path4733"
               inkscape:connector-curvature="0" /></g><g
             id="g4735"
             transform="translate(253.9795,285.2783)"><path
               d="m 0,0 c -0.436,-7.828 4.131,-22.518 4.131,-22.518 0,0 -31.867,34.175 -59.789,45.864 8.566,-9.246 9.852,-17.952 9.852,-17.952 0,0 -45.478,30.853 -69.778,34.68 18.484,-9.896 26.146,-22.948 26.146,-22.948 0,0 -61.955,23.124 -82.854,21.557 28.313,-12.604 33.658,-24.436 33.658,-24.436 0,0 -45.547,18.133 -84.873,15.497 16.057,-0.252 90.209,-22.107 98.324,-36.141 0.478,12.679 -7.893,27.968 -7.893,27.968 25.242,-8.497 46.41,-21.691 66.607,-36.003 l -10.286,25.309 c 18.687,-10.424 35.99,-23.773 52.035,-39.782 l -9.154,20.879 c 19.821,-10.966 34.232,-25.809 46.081,-42.49 l 0.413,16.595 18.027,-19.499 c 0,0 -15.045,41.851 -30.647,53.42"
               style="fill:#666666;fill-opacity:1;fill-rule:nonzero;stroke:none"
               id="path4737"
               inkscape:connector-curvature="0" /></g></g></g></g></g></svg>